<?xml version="1.0" standalone="no"?>
<!DOCTYPE svg PUBLIC "-//W3C//DTD SVG 20010904//EN"
 "http://www.w3.org/TR/2001/REC-SVG-20010904/DTD/svg10.dtd">
<svg version="1.0" xmlns="http://www.w3.org/2000/svg"
 width="640.000000pt" height="640.000000pt" viewBox="0 0 640.000000 640.000000"
 preserveAspectRatio="xMidYMid meet">

<g transform="translate(0.000000,640.000000) scale(0.100000,-0.100000)"
fill="#333" stroke="none">
<path d="M2080 5614 c-267 -45 -492 -141 -706 -301 -80 -60 -242 -223 -300
-302 -127 -176 -217 -370 -258 -556 -61 -274 -62 -442 -5 -695 5 -25 14 -65
19 -89 6 -24 14 -49 19 -55 4 -6 11 -24 15 -41 11 -45 119 -263 160 -320 19
-27 47 -68 62 -90 36 -54 225 -240 299 -295 202 -150 415 -239 700 -291 90
-17 352 -17 429 0 75 17 82 10 65 -65 -19 -86 -16 -349 5 -459 29 -159 70
-283 137 -420 48 -99 96 -185 108 -195 3 -3 20 -25 36 -50 93 -139 397 -394
545 -456 8 -4 42 -19 75 -34 172 -78 416 -130 609 -130 206 0 479 60 636 140
19 10 55 28 80 40 212 102 463 337 592 555 89 152 124 233 180 423 21 71 48
283 48 377 0 129 -48 420 -80 484 -4 9 -18 43 -30 76 -57 154 -165 330 -283
461 -64 71 -220 208 -290 254 -83 55 -285 153 -372 179 -38 12 -85 27 -104 33
-40 12 -109 23 -266 39 -85 9 -135 9 -225 -1 -173 -18 -165 -19 -164 10 1 14
7 72 14 130 27 239 -26 532 -142 780 -80 171 -162 286 -307 431 -135 134 -227
200 -406 291 -110 55 -322 128 -376 128 -19 1 -63 7 -99 15 -83 18 -307 18
-420 -1z m460 -133 c215 -44 377 -106 512 -197 28 -19 52 -34 55 -34 10 0 170
-140 221 -192 49 -52 132 -153 132 -162 0 -3 17 -31 38 -63 93 -140 161 -327
197 -538 20 -114 16 -319 -7 -439 l-14 -68 -64 -24 c-36 -14 -79 -31 -97 -39
-17 -8 -36 -15 -42 -15 -14 0 -14 25 0 51 22 42 49 225 49 335 0 107 -24 276
-51 354 -21 62 -50 134 -67 170 -56 115 -146 240 -174 240 -22 0 -35 -27 -22
-46 5 -7 27 -39 49 -71 35 -50 99 -171 125 -238 91 -230 99 -518 20 -756 -26
-80 -38 -96 -105 -137 -187 -113 -400 -324 -499 -493 -14 -26 -37 -58 -49 -71
-54 -59 -344 -116 -512 -102 -161 13 -302 51 -433 117 -135 66 -199 113 -307
221 -174 174 -267 346 -322 592 -24 110 -24 320 1 439 29 141 104 331 152 386
8 8 14 19 14 23 0 39 268 307 340 339 8 4 29 16 45 27 51 33 169 87 205 95 19
4 40 11 45 15 6 4 53 16 105 26 136 27 343 25 465 -5 104 -25 125 -27 136 -9
21 33 -12 51 -147 78 -209 42 -460 20 -659 -57 -106 -42 -259 -127 -303 -170
-7 -7 -17 -13 -21 -13 -17 0 -195 -189 -241 -256 -82 -119 -122 -200 -170
-349 -68 -213 -67 -493 4 -715 62 -195 190 -394 340 -530 22 -19 44 -40 50
-45 36 -35 224 -147 296 -177 109 -45 133 -53 259 -77 135 -27 291 -28 431 -1
58 11 115 25 128 32 38 20 47 -2 23 -55 -12 -25 -21 -52 -21 -60 0 -7 -3 -17
-7 -21 -4 -4 -12 -21 -18 -38 -9 -30 -15 -33 -80 -45 -38 -8 -131 -16 -205
-19 -111 -5 -156 -2 -250 15 -125 23 -229 49 -245 61 -5 4 -23 10 -38 14 -46
11 -177 76 -252 124 -131 86 -267 209 -361 327 -91 114 -203 327 -230 440 -3
11 -11 43 -19 70 -60 214 -60 507 0 696 8 26 15 55 15 65 0 11 7 32 15 48 8
15 15 33 15 39 0 10 62 146 80 177 5 8 23 38 40 66 70 118 196 260 318 357
131 105 335 213 457 243 11 3 43 12 70 20 166 47 419 58 585 25z m1810 -1794
c103 -20 195 -45 227 -63 16 -7 33 -14 39 -14 23 0 227 -108 269 -142 6 -5 39
-30 75 -57 122 -92 256 -239 329 -363 17 -29 36 -60 41 -68 16 -25 80 -167 80
-178 0 -6 6 -23 14 -39 62 -124 95 -482 62 -673 -25 -143 -57 -248 -112 -368
-19 -41 -34 -75 -34 -77 0 -2 -13 -24 -30 -48 -16 -25 -30 -48 -30 -52 0 -14
-132 -176 -188 -232 -85 -84 -192 -167 -297 -230 -60 -35 -261 -123 -283 -123
-8 0 -35 -7 -61 -15 -191 -61 -486 -59 -736 5 -27 7 -62 19 -77 26 -14 8 -32
14 -38 14 -21 0 -161 69 -236 115 -191 119 -354 280 -465 461 -49 80 -119 224
-119 246 0 8 -4 18 -9 24 -10 10 -35 101 -58 209 -24 115 -28 352 -8 470 42
244 141 474 279 649 60 76 290 296 309 296 3 0 29 16 59 35 67 45 232 125 256
125 10 0 23 5 28 10 13 13 105 38 224 60 115 22 373 20 490 -3z"/>
<path d="M2762 5198 c-7 -7 -12 -15 -12 -20 0 -12 54 -58 69 -58 8 0 22 -7 32
-16 10 -9 33 -17 51 -17 30 -2 33 1 33 27 0 24 -8 33 -63 62 -67 36 -91 41
-110 22z"/>
<path d="M3022 5048 c-22 -22 -13 -46 32 -82 50 -41 61 -44 76 -16 14 26 2 49
-44 83 -39 30 -47 32 -64 15z"/>
<path d="M2291 4811 c-6 -11 -11 -29 -11 -40 0 -19 -32 -46 -42 -35 -7 7 -117
-36 -158 -62 -83 -52 -124 -134 -125 -249 0 -91 31 -169 88 -222 45 -41 145
-97 195 -108 41 -9 44 -23 40 -275 l-3 -205 -38 -3 c-50 -4 -135 35 -190 88
-23 22 -52 40 -64 40 -25 0 -63 -43 -63 -72 0 -78 122 -167 262 -190 86 -14
98 -21 98 -58 0 -15 9 -35 20 -45 18 -17 21 -17 45 -1 20 13 25 25 25 56 0 38
2 40 43 50 128 35 222 117 251 221 29 105 14 262 -33 327 -44 63 -157 139
-243 166 -16 5 -18 24 -18 206 0 172 2 201 16 207 8 3 50 -7 92 -22 113 -40
128 -42 152 -14 28 35 26 77 -7 102 -34 27 -156 67 -206 67 -22 0 -39 5 -41
13 -17 63 -22 72 -48 75 -18 2 -30 -3 -37 -17z m-11 -211 c5 0 8 -78 7 -172
-2 -170 -2 -173 -24 -176 -25 -4 -99 37 -129 70 -48 54 -54 140 -14 206 21 35
114 86 138 77 8 -3 17 -5 22 -5z m148 -587 c48 -32 92 -85 103 -127 14 -52 6
-159 -15 -190 -24 -37 -81 -77 -113 -79 l-28 -2 -3 208 c-3 227 -3 227 56 190z"/>
<path d="M3882 3500 c-269 -54 -469 -162 -659 -356 -368 -376 -446 -934 -198
-1409 204 -392 626 -645 1076 -645 258 0 540 97 739 255 62 49 220 216 259
274 227 336 274 752 127 1131 -48 124 -170 320 -200 320 -7 0 -19 -7 -26 -15
-10 -13 -8 -22 16 -56 87 -122 147 -239 183 -359 109 -359 38 -742 -192 -1039
-264 -340 -701 -510 -1109 -431 -121 23 -182 42 -266 81 -35 16 -65 29 -68 29
-4 0 -26 14 -51 30 -24 17 -47 30 -50 30 -14 0 -136 106 -205 179 -146 152
-242 332 -290 544 -28 124 -30 347 -5 462 55 243 151 420 322 591 168 169 341
263 590 320 120 28 327 25 467 -5 87 -19 111 -21 123 -11 23 19 18 30 -22 47
-122 51 -392 66 -561 33z"/>
<path d="M4557 3413 c-15 -14 -6 -49 16 -63 40 -26 112 -59 128 -60 40 0 49
53 12 67 -10 4 -40 19 -66 35 -47 27 -77 35 -90 21z"/>
<path d="M4807 3253 c-17 -16 -4 -45 37 -78 44 -36 69 -38 80 -8 6 16 -10 41
-49 75 -20 18 -56 24 -68 11z"/>
<path d="M4036 2924 c-99 -31 -173 -97 -205 -184 -12 -32 -24 -97 -28 -155
l-8 -100 -57 -6 c-65 -7 -88 -21 -88 -54 0 -35 30 -53 90 -57 l55 -3 5 -61 c8
-92 7 -94 -54 -94 -60 0 -96 -20 -96 -54 0 -34 26 -50 89 -56 l56 -5 8 -94
c14 -160 85 -262 215 -309 67 -25 209 -30 271 -11 158 49 251 155 251 285 0
61 -21 84 -77 84 -33 0 -63 -28 -63 -60 0 -64 -48 -138 -109 -169 -132 -67
-292 -9 -335 122 -17 50 -22 142 -8 151 4 2 63 6 130 7 67 1 132 7 145 13 27
14 32 44 12 71 -14 18 -31 21 -153 25 l-137 5 0 75 0 75 135 3 c123 2 137 4
153 23 23 29 22 55 -5 73 -18 13 -51 16 -149 16 -144 0 -139 -3 -139 83 0 110
50 198 130 234 53 24 158 21 214 -6 56 -26 103 -87 111 -144 8 -54 22 -72 62
-80 23 -5 38 -1 57 14 68 54 -7 248 -117 304 -106 55 -256 71 -361 39z"/>
<path d="M4374 5358 c-223 -222 -274 -278 -274 -300 0 -22 49 -75 261 -288
144 -143 272 -268 286 -277 23 -15 26 -15 51 4 15 11 28 32 30 48 3 24 -21 52
-200 231 -113 113 -202 206 -200 209 3 3 211 5 462 5 l457 0 40 -29 c22 -16
52 -49 66 -74 l27 -46 0 -449 c0 -422 1 -450 18 -465 24 -22 65 -21 85 1 15
17 17 64 17 473 0 417 -2 458 -19 503 -21 58 -73 125 -120 157 -80 56 -98 58
-583 58 -318 1 -448 4 -448 12 0 6 90 100 200 210 170 169 200 203 200 228 0
32 -30 61 -63 61 -11 0 -129 -110 -293 -272z"/>
<path d="M917 2472 c-15 -17 -17 -64 -17 -472 0 -399 2 -460 17 -500 30 -83
88 -146 172 -187 l56 -28 463 -3 c335 -2 462 -6 462 -14 0 -6 -90 -101 -200
-210 -168 -167 -200 -203 -200 -228 0 -31 30 -60 64 -60 12 0 124 105 292 272
229 228 274 277 274 301 0 23 -44 71 -260 287 -143 143 -271 267 -286 276 -24
16 -27 16 -52 -3 -15 -11 -28 -32 -30 -48 -3 -24 22 -53 202 -232 113 -113
206 -207 206 -209 0 -2 -209 -4 -463 -4 l-464 0 -41 30 c-22 16 -52 49 -66 73
l-26 44 0 450 c0 423 -1 451 -18 466 -24 22 -65 21 -85 -1z"/>
</g>
</svg>
